<?xml version="1.0" encoding="utf-8"?>
<!-- Generator: Adobe Illustrator 19.0.0, SVG Export Plug-In . SVG Version: 6.00 Build 0)  -->
<svg version="1.1" id="Layer_1" xmlns="http://www.w3.org/2000/svg" xmlns:xlink="http://www.w3.org/1999/xlink" x="0px" y="0px"
	 viewBox="-63 313 512 512" style="enable-background:new -63 313 512 512;" xml:space="preserve">
<style type="text/css">
	.st0{fill:#FFFFFF;}
</style>
<g>
	<path class="st0" d="M32.5,729.5C73.6,770.6,130.3,796,193,796c62.7,0,119.5-25.4,160.5-66.5C394.6,688.5,420,631.7,420,569
		s-25.4-119.5-66.5-160.5C312.5,367.4,255.7,342,193,342c-62.7,0-119.4,25.4-160.5,66.5C-8.6,449.5-34,506.3-34,569
		S-8.6,688.5,32.5,729.5 M193,313c141.4,0,256,114.6,256,256c0,141.4-114.6,256-256,256C51.6,825-63,710.4-63,569
		C-63,427.6,51.6,313,193,313z"/>
	<path class="st0" d="M421.6,626.7H137.2v-40.2h291.1C427.2,600.2,425,613.7,421.6,626.7"/>
	<path class="st0" d="M139.6,576.4v-82.2c0-39.9,43.7-39.9,43.7-1.5v42h106.2c-0.2-21.5-0.2-43.3,0.5-43.3h125.2
		c8.8,24.3,13.7,50.5,13.7,77.8c0,2.5,0,4.9-0.1,7.4h-63.1H290H139.6z"/>
	<path class="st0" d="M229.7,526.2c21.3,0,38.7-17.4,38.7-38.7c0-21.5-17.4-38.3-38.7-38.3S191,466.1,191,487.5
		C191,508.8,208.4,526.2,229.7,526.2"/>
	<path class="st0" d="M103.4,470.1L103.4,470.1c11.8,0,21.4,9.6,21.4,21.4v197.2H82V491.6C82,479.8,91.6,470.1,103.4,470.1"/>
</g>
</svg>
